<?xml version="1.0" encoding="UTF-8"?>
<svg xmlns="http://www.w3.org/2000/svg" xmlns:xlink="http://www.w3.org/1999/xlink" width="25pt" height="51pt" viewBox="0 0 25 51" version="1.1">
<g id="surface1">
<path style=" stroke:none;fill-rule:nonzero;fill:rgb(0%,12.941176%,33.72549%);fill-opacity:1;" d="M 6.925781 34.417969 C 6.78125 34.382812 6.660156 34.296875 6.5625 34.164062 C 6.078125 34.902344 5.871094 35.5625 6.050781 36.15625 C 6.796875 38.644531 9.023438 40.484375 11.691406 40.730469 C 9.140625 39.964844 7.257812 37.347656 6.925781 34.417969 M 6.40625 32.949219 C 6.246094 32.835938 6.105469 32.730469 6.007812 32.636719 C 5.835938 33.273438 5.761719 33.929688 5.789062 34.585938 C 5.792969 34.722656 5.804688 34.859375 5.816406 34.992188 C 5.914062 34.59375 6.109375 34.175781 6.386719 33.75 C 6.335938 33.503906 6.34375 33.21875 6.40625 32.949219 Z M 6.53125 32.566406 C 6.597656 32.417969 6.683594 32.277344 6.78125 32.160156 C 6.863281 32.066406 6.949219 31.992188 7.039062 31.9375 C 7.28125 30.820312 7.789062 29.828125 8.53125 29.078125 C 7.425781 29.855469 6.578125 30.960938 6.132812 32.242188 C 6.191406 32.320312 6.347656 32.441406 6.53125 32.566406 Z M 16.089844 38.292969 C 15.539062 38.230469 14.800781 38.085938 14.480469 37.976562 C 14.121094 37.855469 13.800781 37.558594 13.625 37.183594 C 13.535156 36.992188 13.484375 36.785156 13.472656 36.574219 C 13.46875 36.421875 13.484375 36.257812 13.527344 36.082031 C 11.503906 35.472656 9.363281 34.625 7.871094 33.839844 C 7.820312 33.933594 7.757812 34.019531 7.691406 34.101562 C 7.578125 34.234375 7.453125 34.328125 7.324219 34.382812 C 7.460938 35.605469 7.894531 36.808594 8.578125 37.851562 C 9.492188 39.238281 10.730469 40.1875 12.070312 40.488281 C 12.542969 40.59375 13.164062 40.726562 13.71875 40.605469 C 15.777344 40.15625 17.457031 38.75 18.277344 36.902344 C 18.179688 36.917969 18.074219 36.929688 17.957031 36.933594 C 17.488281 38.289062 16.5 38.335938 16.089844 38.292969 Z M 18.816406 34.0625 C 18.785156 33.351562 18.640625 32.667969 18.394531 32.035156 C 18.097656 31.257812 17.09375 30.710938 15.769531 30.414062 C 13.328125 29.867188 10.117188 30.769531 8.074219 32.464844 C 8.152344 32.773438 8.128906 33.140625 8.023438 33.480469 C 9.496094 34.257812 11.636719 35.105469 13.65625 35.710938 C 14.132812 34.632812 15.042969 34.429688 15.75 34.605469 C 16.105469 34.691406 16.464844 34.773438 16.824219 34.84375 L 17.085938 34.898438 C 17.425781 34.976562 17.71875 35.195312 17.898438 35.503906 C 18.023438 35.722656 18.140625 36.066406 18.058594 36.539062 C 18.308594 36.527344 18.429688 36.484375 18.457031 36.453125 C 18.722656 35.707031 18.851562 34.898438 18.816406 34.0625 Z M 17.65625 36.539062 C 17.738281 36.144531 17.652344 35.867188 17.554688 35.695312 C 17.429688 35.484375 17.226562 35.332031 16.996094 35.277344 L 16.746094 35.226562 C 16.378906 35.152344 16.015625 35.074219 15.65625 34.984375 C 14.960938 34.8125 14.367188 35.125 14.039062 35.824219 C 14.367188 35.917969 14.699219 36.007812 15.03125 36.089844 C 15.085938 35.84375 15.097656 35.667969 15.097656 35.667969 C 15.101562 35.558594 15.195312 35.476562 15.304688 35.484375 C 15.359375 35.484375 15.40625 35.507812 15.441406 35.546875 C 15.476562 35.585938 15.496094 35.636719 15.492188 35.691406 C 15.492188 35.703125 15.480469 35.902344 15.417969 36.183594 C 15.484375 36.199219 15.546875 36.214844 15.609375 36.226562 C 15.675781 36.242188 15.738281 36.257812 15.800781 36.269531 C 15.859375 35.992188 15.894531 35.761719 15.894531 35.753906 C 15.914062 35.648438 16.011719 35.578125 16.121094 35.59375 C 16.230469 35.609375 16.304688 35.707031 16.289062 35.8125 C 16.285156 35.832031 16.25 36.066406 16.191406 36.347656 C 16.324219 36.375 16.449219 36.394531 16.570312 36.414062 C 16.613281 36.179688 16.625 35.988281 16.625 35.988281 C 16.628906 35.878906 16.722656 35.796875 16.832031 35.800781 C 16.882812 35.804688 16.933594 35.828125 16.96875 35.863281 C 17.003906 35.902344 17.023438 35.953125 17.019531 36.003906 C 17.019531 36.019531 17.007812 36.21875 16.960938 36.472656 C 17.234375 36.511719 17.464844 36.53125 17.65625 36.539062 Z M 13.984375 37.019531 C 14.136719 37.347656 14.410156 37.539062 14.609375 37.605469 C 14.871094 37.695312 15.5625 37.839844 16.136719 37.902344 C 16.765625 37.96875 17.257812 37.625 17.535156 36.925781 C 17.328125 36.914062 17.101562 36.890625 16.867188 36.859375 C 16.824219 37 16.769531 37.140625 16.695312 37.261719 C 16.640625 37.355469 16.519531 37.390625 16.425781 37.335938 C 16.332031 37.28125 16.296875 37.164062 16.351562 37.070312 C 16.398438 36.988281 16.4375 36.894531 16.472656 36.796875 C 16.347656 36.777344 16.222656 36.753906 16.101562 36.730469 C 16.058594 36.890625 16.011719 37.046875 15.960938 37.160156 C 15.917969 37.261719 15.800781 37.304688 15.699219 37.261719 C 15.652344 37.242188 15.613281 37.203125 15.59375 37.15625 C 15.574219 37.105469 15.578125 37.050781 15.597656 37.003906 C 15.636719 36.914062 15.675781 36.785156 15.714844 36.652344 C 15.648438 36.636719 15.585938 36.621094 15.523438 36.609375 C 15.457031 36.59375 15.386719 36.578125 15.320312 36.5625 C 15.28125 36.679688 15.238281 36.796875 15.191406 36.914062 C 15.148438 37.011719 15.03125 37.058594 14.929688 37.015625 C 14.832031 36.976562 14.78125 36.859375 14.824219 36.761719 C 14.867188 36.664062 14.902344 36.566406 14.933594 36.46875 C 14.589844 36.382812 14.25 36.289062 13.910156 36.191406 C 13.824219 36.554688 13.898438 36.835938 13.984375 37.019531 Z M 7.453125 32.144531 C 7.363281 32.128906 7.191406 32.128906 7.015625 32.316406 C 6.738281 32.613281 6.609375 33.011719 6.628906 33.503906 C 6.636719 33.628906 6.652344 33.699219 6.6875 33.800781 C 6.753906 33.980469 6.910156 34.097656 7.019531 34.117188 C 7.15625 34.144531 7.308594 34.066406 7.449219 33.902344 C 7.757812 33.539062 7.890625 32.875 7.738281 32.453125 C 7.675781 32.277344 7.574219 32.167969 7.453125 32.144531 Z M 7.453125 32.144531 "/>
<path style=" stroke:none;fill-rule:nonzero;fill:rgb(100%,100%,100%);fill-opacity:1;" d="M 9.476562 0 C 6.921875 0 6.316406 1.292969 6.316406 1.292969 C 6.316406 1.292969 9.265625 1.082031 9.265625 3.953125 C 9.265625 5.246094 8.550781 6.121094 7.796875 7.046875 C 6.921875 8.125 5.929688 9.34375 5.929688 11.390625 C 5.929688 14.78125 8.132812 16.371094 10.082031 17.773438 C 11.777344 18.996094 13.378906 20.148438 13.378906 22.320312 C 13.378906 24.507812 12.40625 26.199219 11.964844 26.636719 C 11.21875 27.371094 10.550781 27.503906 10.011719 27.613281 C 9.460938 27.722656 8.9375 27.828125 8.828125 28.609375 C 6.78125 29.824219 5.542969 31.980469 5.542969 34.320312 C 5.542969 34.414062 5.546875 34.503906 5.550781 34.597656 C 5.625 36.375 6.394531 38.019531 7.722656 39.226562 C 9.050781 40.433594 10.773438 41.058594 12.578125 40.984375 C 14.378906 40.914062 16.046875 40.152344 17.269531 38.84375 C 18.496094 37.535156 19.128906 35.832031 19.054688 34.054688 C 18.941406 31.335938 17.195312 28.984375 14.601562 28.058594 L 14.613281 28.058594 C 14.601562 28.054688 14.589844 28.050781 14.578125 28.046875 C 14.558594 28.039062 14.535156 28.03125 14.515625 28.023438 C 14.1875 27.914062 13.816406 27.785156 13.816406 26.957031 C 13.816406 26.148438 14.1875 26.082031 14.925781 25.949219 C 15.363281 25.871094 15.902344 25.773438 16.425781 25.453125 C 17.363281 24.890625 17.539062 24.210938 17.371094 24.042969 C 17.136719 23.8125 16.882812 24.292969 15.9375 24.574219 C 15.597656 24.675781 15.257812 24.734375 15.023438 24.734375 C 14.832031 24.734375 14.6875 24.71875 14.582031 24.699219 C 15.078125 23.785156 15.632812 23.035156 15.640625 23.027344 L 15.761719 22.863281 L 15.617188 22.722656 C 15.425781 22.53125 15.316406 22.140625 15.316406 21.613281 C 15.316406 20.960938 15.484375 20.109375 15.871094 19.179688 C 16.332031 18.085938 18.160156 14.507812 22.351562 14.507812 L 22.589844 14.507812 L 22.589844 14.273438 C 22.589844 12.796875 22.453125 11.4375 22.183594 10.234375 L 22.128906 10 C 22.128906 10 21.722656 10.113281 21.382812 10.1875 C 21.34375 10.195312 21.027344 10.273438 21.011719 10.207031 C 21 10.148438 21.242188 10.027344 21.328125 9.984375 C 21.648438 9.828125 22.042969 9.664062 22.042969 9.664062 L 21.988281 9.476562 C 21.691406 8.449219 21.390625 7.957031 21.375 7.933594 L 21.277344 7.777344 L 21.101562 7.832031 C 17.613281 8.917969 16.867188 11.203125 16.417969 12.566406 C 16.203125 13.230469 16.066406 13.605469 15.824219 13.605469 C 15.105469 13.605469 14.507812 13.019531 14.3125 12.824219 C 12.136719 10.679688 12.304688 9.132812 12.554688 6.789062 C 12.644531 5.960938 12.746094 5.023438 12.746094 3.953125 C 12.746094 1.257812 11.707031 0 9.476562 0 "/>
<path style=" stroke:none;fill-rule:nonzero;fill:rgb(0%,12.941176%,33.72549%);fill-opacity:1;" d="M 13.617188 22.320312 C 13.617188 24.496094 12.675781 26.265625 12.132812 26.804688 C 10.449219 28.464844 9.058594 27.253906 9.042969 28.921875 C 8.277344 29.605469 7.730469 30.644531 7.460938 31.828125 C 7.476562 31.832031 7.492188 31.832031 7.507812 31.835938 C 7.667969 31.863281 7.804688 31.953125 7.90625 32.09375 C 10.046875 30.375 13.339844 29.46875 15.859375 30.03125 C 16.660156 30.210938 17.335938 30.503906 17.851562 30.949219 C 17.078125 29.714844 15.898438 28.761719 14.5 28.269531 C 14.167969 28.152344 13.578125 28.015625 13.578125 26.953125 C 13.578125 24.972656 15.777344 26.515625 17.222656 24.355469 C 17.292969 24.25 17.191406 24.15625 17.105469 24.242188 C 16.667969 24.671875 15.59375 24.96875 15.023438 24.96875 C 14.457031 24.96875 14.242188 24.839844 14.242188 24.839844 C 14.777344 23.785156 15.449219 22.886719 15.449219 22.886719 C 14.105469 21.5625 16.367188 14.273438 22.351562 14.273438 C 22.351562 12.582031 22.167969 11.261719 21.949219 10.28125 C 21.808594 10.316406 20.679688 10.578125 20.628906 10.34375 C 20.582031 10.136719 21.457031 9.6875 21.761719 9.542969 C 21.464844 8.53125 21.171875 8.058594 21.171875 8.058594 C 16.042969 9.652344 17.074219 13.839844 15.824219 13.839844 C 15.011719 13.839844 14.375 13.214844 14.144531 12.992188 C 11.082031 9.96875 12.507812 7.96875 12.507812 3.953125 C 12.507812 1.246094 11.445312 0.234375 9.476562 0.234375 C 7.511719 0.234375 6.808594 1.074219 6.808594 1.074219 C 6.808594 1.074219 9.503906 1.160156 9.503906 3.953125 C 9.503906 6.875 6.164062 7.683594 6.164062 11.390625 C 6.164062 17.566406 13.617188 17.449219 13.617188 22.320312 M 10.066406 3.953125 C 10.066406 3.59375 10.027344 3.269531 9.953125 2.980469 C 9.953125 2.980469 10.542969 2.949219 10.542969 2.246094 C 10.542969 1.664062 10.148438 1.269531 10.042969 1.269531 C 9.957031 1.269531 9.9375 1.359375 9.753906 1.359375 C 9.304688 1.359375 9.273438 0.792969 9.273438 0.792969 C 9.339844 0.789062 9.40625 0.789062 9.476562 0.789062 C 10.757812 0.789062 11.945312 1.171875 11.945312 3.953125 C 11.945312 4.980469 11.847656 5.898438 11.761719 6.703125 C 11.675781 7.5 11.59375 8.242188 11.617188 8.96875 C 11.617188 8.96875 9.382812 8.707031 9.382812 7.050781 C 9.382812 5.972656 10.066406 5.710938 10.066406 3.953125 Z M 6.925781 34.417969 C 6.78125 34.382812 6.660156 34.296875 6.5625 34.164062 C 6.078125 34.902344 5.871094 35.5625 6.050781 36.15625 C 6.796875 38.644531 9.023438 40.484375 11.691406 40.730469 C 9.140625 39.964844 7.257812 37.347656 6.925781 34.417969 Z M 6.40625 32.949219 C 6.246094 32.835938 6.105469 32.730469 6.007812 32.636719 C 5.835938 33.273438 5.761719 33.929688 5.789062 34.585938 C 5.792969 34.722656 5.804688 34.859375 5.816406 34.992188 C 5.914062 34.59375 6.109375 34.175781 6.386719 33.75 C 6.335938 33.503906 6.34375 33.21875 6.40625 32.949219 Z M 6.53125 32.566406 C 6.597656 32.417969 6.683594 32.277344 6.78125 32.160156 C 6.863281 32.066406 6.949219 31.992188 7.039062 31.9375 C 7.28125 30.820312 7.789062 29.828125 8.53125 29.078125 C 7.425781 29.855469 6.578125 30.960938 6.132812 32.242188 C 6.191406 32.320312 6.347656 32.441406 6.53125 32.566406 Z M 16.089844 38.292969 C 15.539062 38.230469 14.800781 38.085938 14.480469 37.976562 C 14.121094 37.855469 13.800781 37.558594 13.625 37.183594 C 13.535156 36.992188 13.484375 36.785156 13.472656 36.574219 C 13.46875 36.421875 13.484375 36.257812 13.527344 36.082031 C 11.503906 35.472656 9.363281 34.625 7.871094 33.839844 C 7.820312 33.933594 7.757812 34.019531 7.691406 34.101562 C 7.578125 34.234375 7.453125 34.328125 7.324219 34.382812 C 7.460938 35.605469 7.894531 36.808594 8.578125 37.851562 C 9.492188 39.238281 10.730469 40.1875 12.070312 40.488281 C 12.542969 40.59375 13.164062 40.726562 13.71875 40.605469 C 15.777344 40.15625 17.457031 38.75 18.277344 36.902344 C 18.179688 36.917969 18.074219 36.929688 17.957031 36.933594 C 17.488281 38.289062 16.5 38.335938 16.089844 38.292969 Z M 18.394531 32.035156 C 18.097656 31.257812 17.09375 30.710938 15.769531 30.414062 C 13.328125 29.867188 10.117188 30.769531 8.074219 32.464844 C 8.152344 32.773438 8.128906 33.140625 8.023438 33.480469 C 9.496094 34.257812 11.636719 35.105469 13.65625 35.710938 C 14.132812 34.632812 15.042969 34.429688 15.75 34.605469 C 16.105469 34.691406 16.464844 34.773438 16.824219 34.84375 L 17.085938 34.898438 C 17.425781 34.976562 17.71875 35.195312 17.898438 35.503906 C 18.023438 35.722656 18.140625 36.066406 18.058594 36.539062 C 18.308594 36.527344 18.429688 36.484375 18.457031 36.453125 C 18.722656 35.707031 18.851562 34.902344 18.816406 34.0625 C 18.789062 33.371094 18.644531 32.683594 18.394531 32.035156 Z M 13.984375 37.019531 C 14.136719 37.347656 14.410156 37.539062 14.609375 37.605469 C 14.871094 37.695312 15.5625 37.839844 16.136719 37.902344 C 16.765625 37.96875 17.257812 37.625 17.535156 36.925781 C 17.328125 36.914062 17.101562 36.890625 16.867188 36.859375 C 16.824219 37 16.769531 37.140625 16.695312 37.261719 C 16.640625 37.355469 16.519531 37.390625 16.425781 37.335938 C 16.332031 37.28125 16.296875 37.164062 16.351562 37.070312 C 16.398438 36.988281 16.4375 36.894531 16.472656 36.796875 C 16.347656 36.777344 16.222656 36.753906 16.101562 36.730469 C 16.058594 36.890625 16.011719 37.046875 15.960938 37.160156 C 15.917969 37.261719 15.800781 37.304688 15.699219 37.261719 C 15.652344 37.242188 15.613281 37.203125 15.59375 37.15625 C 15.574219 37.105469 15.578125 37.050781 15.597656 37.003906 C 15.636719 36.914062 15.675781 36.785156 15.714844 36.652344 C 15.648438 36.636719 15.585938 36.621094 15.523438 36.609375 C 15.457031 36.59375 15.386719 36.578125 15.320312 36.5625 C 15.28125 36.679688 15.238281 36.796875 15.191406 36.914062 C 15.148438 37.011719 15.03125 37.058594 14.929688 37.015625 C 14.832031 36.976562 14.78125 36.859375 14.824219 36.761719 C 14.867188 36.664062 14.902344 36.566406 14.933594 36.46875 C 14.589844 36.382812 14.25 36.289062 13.910156 36.191406 C 13.824219 36.554688 13.898438 36.835938 13.984375 37.019531 Z M 17.65625 36.539062 C 17.738281 36.144531 17.652344 35.867188 17.554688 35.695312 C 17.429688 35.484375 17.226562 35.332031 16.996094 35.277344 L 16.746094 35.226562 C 16.378906 35.152344 16.015625 35.074219 15.65625 34.984375 C 14.960938 34.8125 14.367188 35.125 14.039062 35.824219 C 14.367188 35.917969 14.699219 36.007812 15.03125 36.089844 C 15.085938 35.84375 15.097656 35.667969 15.097656 35.667969 C 15.101562 35.558594 15.195312 35.476562 15.304688 35.484375 C 15.359375 35.484375 15.40625 35.507812 15.441406 35.546875 C 15.476562 35.585938 15.496094 35.636719 15.492188 35.691406 C 15.492188 35.703125 15.480469 35.902344 15.417969 36.183594 C 15.484375 36.199219 15.546875 36.214844 15.609375 36.226562 C 15.675781 36.242188 15.738281 36.257812 15.800781 36.269531 C 15.859375 35.992188 15.894531 35.761719 15.894531 35.753906 C 15.914062 35.648438 16.011719 35.578125 16.121094 35.59375 C 16.230469 35.609375 16.304688 35.707031 16.289062 35.8125 C 16.285156 35.832031 16.25 36.066406 16.191406 36.347656 C 16.324219 36.375 16.449219 36.394531 16.570312 36.414062 C 16.613281 36.179688 16.625 35.988281 16.625 35.988281 C 16.628906 35.878906 16.722656 35.796875 16.832031 35.800781 C 16.882812 35.804688 16.933594 35.828125 16.96875 35.863281 C 17.003906 35.902344 17.023438 35.953125 17.019531 36.003906 C 17.019531 36.019531 17.007812 36.21875 16.960938 36.472656 C 17.234375 36.511719 17.464844 36.53125 17.65625 36.539062 Z M 7.453125 32.144531 C 7.363281 32.128906 7.191406 32.128906 7.015625 32.316406 C 6.738281 32.613281 6.609375 33.011719 6.628906 33.503906 C 6.636719 33.628906 6.652344 33.699219 6.6875 33.800781 C 6.753906 33.980469 6.910156 34.097656 7.019531 34.117188 C 7.15625 34.144531 7.308594 34.066406 7.449219 33.902344 C 7.757812 33.539062 7.890625 32.875 7.738281 32.453125 C 7.675781 32.277344 7.574219 32.167969 7.453125 32.144531 Z M 2.324219 39.953125 C 2.824219 40.277344 3.355469 40.570312 3.355469 40.570312 L 3.167969 41.042969 C 3.097656 40.757812 2.808594 40.601562 2.4375 40.375 L 1.21875 42.113281 C 1.070312 42.324219 0.777344 42.785156 0.753906 42.960938 C 0.753906 42.960938 0.554688 42.835938 0.371094 42.703125 C 0.179688 42.5625 0 42.433594 0 42.433594 C 0.183594 42.386719 0.496094 41.933594 0.683594 41.679688 L 1.871094 40.007812 C 1.425781 39.667969 1.253906 39.601562 0.941406 39.585938 L 1.363281 39.273438 C 1.363281 39.273438 1.769531 39.589844 2.324219 39.953125 M 21.652344 45.847656 L 21.691406 45.886719 C 21.65625 45.886719 21.628906 45.902344 21.589844 45.921875 L 21.699219 46.125 C 21.71875 46.164062 21.75 46.222656 21.765625 46.226562 C 21.765625 46.226562 21.746094 46.238281 21.71875 46.25 C 21.691406 46.261719 21.671875 46.273438 21.671875 46.273438 C 21.671875 46.246094 21.664062 46.226562 21.632812 46.167969 L 21.523438 45.957031 C 21.484375 45.976562 21.441406 45.992188 21.433594 46.023438 L 21.421875 45.964844 C 21.421875 45.964844 21.476562 45.9375 21.539062 45.90625 C 21.578125 45.886719 21.617188 45.867188 21.652344 45.847656 M 3.113281 44.269531 C 2.265625 43.871094 2.152344 42.949219 2.570312 42.085938 C 2.988281 41.222656 3.789062 40.734375 4.632812 41.132812 C 5.476562 41.527344 5.59375 42.449219 5.175781 43.3125 C 4.757812 44.175781 3.960938 44.667969 3.113281 44.269531 M 4.511719 41.382812 C 3.96875 41.125 3.542969 41.730469 3.222656 42.394531 C 2.902344 43.058594 2.691406 43.769531 3.234375 44.023438 C 3.773438 44.277344 4.203125 43.671875 4.523438 43.007812 C 4.84375 42.34375 5.054688 41.636719 4.511719 41.382812 Z M 6.90625 42.023438 C 7.25 42.117188 7.597656 42.207031 7.945312 42.289062 L 7.894531 42.792969 C 7.742188 42.574219 7.671875 42.523438 7.183594 42.398438 L 6.589844 44.367188 C 6.542969 44.546875 6.304688 45.226562 6.378906 45.355469 C 6.378906 45.355469 6.214844 45.320312 5.949219 45.246094 C 5.652344 45.167969 5.511719 45.109375 5.511719 45.109375 C 5.664062 45.011719 5.855469 44.429688 5.917969 44.191406 L 6.515625 42.210938 C 6.007812 42.046875 5.890625 42.035156 5.648438 42.144531 L 5.941406 41.714844 C 5.941406 41.714844 6.273438 41.84375 6.90625 42.023438 M 9.269531 42.542969 C 9.632812 42.597656 10 42.640625 10.367188 42.675781 L 10.386719 43.183594 C 10.175781 43 10.097656 42.9375 9.539062 42.871094 L 9.214844 44.890625 C 9.195312 45.074219 9.074219 45.777344 9.167969 45.894531 C 9.167969 45.894531 8.972656 45.871094 8.699219 45.835938 C 8.429688 45.796875 8.265625 45.757812 8.265625 45.757812 C 8.398438 45.65625 8.507812 44.992188 8.527344 44.808594 L 8.859375 42.761719 C 8.375 42.667969 8.277344 42.703125 8.046875 42.835938 L 8.257812 42.355469 C 8.253906 42.355469 8.707031 42.460938 9.269531 42.542969 M 11.363281 44.464844 L 11.320312 45.824219 C 12.042969 45.832031 12.535156 45.785156 12.757812 45.476562 L 12.644531 46.09375 C 12.644531 46.09375 12.246094 46.101562 11.660156 46.09375 C 11.019531 46.085938 10.511719 46.042969 10.511719 46.042969 C 10.621094 45.941406 10.648438 45.277344 10.648438 45.09375 L 10.707031 43.761719 C 10.710938 43.40625 10.742188 42.832031 10.621094 42.710938 C 11.144531 42.746094 11.078125 42.746094 11.558594 42.765625 C 12.1875 42.789062 12.542969 42.769531 12.542969 42.769531 L 12.621094 43.28125 C 12.375 43.078125 12.007812 43.054688 11.40625 43.050781 L 11.375 44.191406 L 12.296875 44.195312 C 12.378906 44.195312 12.386719 44.242188 12.386719 44.332031 C 12.382812 44.421875 12.382812 44.472656 12.292969 44.46875 L 11.363281 44.464844 M 15.390625 44.875 C 15.445312 45.367188 15.5 45.722656 15.613281 45.789062 C 15.582031 45.839844 15.492188 45.90625 15.375 45.917969 C 15.230469 45.933594 15.117188 45.863281 15.019531 45.75 L 13.382812 43.898438 L 13.445312 45.074219 C 13.464844 45.261719 13.484375 45.960938 13.601562 46.054688 L 13.058594 46.078125 C 13.152344 45.964844 13.128906 45.296875 13.105469 45.109375 L 13.03125 43.78125 C 13.011719 43.597656 12.976562 42.859375 12.859375 42.769531 L 13.359375 42.75 L 15.035156 44.714844 L 14.894531 43.585938 C 14.875 43.398438 14.773438 42.726562 14.660156 42.632812 C 14.660156 42.632812 14.71875 42.625 14.921875 42.597656 C 15.125 42.570312 15.199219 42.554688 15.199219 42.554688 C 15.105469 42.671875 15.214844 43.363281 15.234375 43.546875 L 15.390625 44.875 M 18.464844 44.171875 C 18.523438 44.402344 18.636719 44.992188 18.808594 45.109375 C 18.808594 45.109375 18.550781 45.183594 18.394531 45.230469 C 18.25 45.273438 17.941406 45.351562 17.941406 45.351562 C 18.015625 45.226562 17.851562 44.515625 17.808594 44.339844 L 17.652344 43.722656 L 16.613281 43.976562 L 16.730469 44.601562 C 16.765625 44.804688 16.871094 45.484375 17.011719 45.570312 C 17.011719 45.570312 16.867188 45.597656 16.566406 45.660156 C 16.3125 45.710938 16.132812 45.738281 16.132812 45.738281 C 16.210938 45.613281 16.109375 44.980469 16.074219 44.777344 L 15.824219 43.453125 C 15.777344 43.207031 15.664062 42.582031 15.523438 42.507812 C 15.523438 42.507812 15.65625 42.480469 15.953125 42.425781 C 16.25 42.367188 16.398438 42.328125 16.398438 42.328125 C 16.324219 42.476562 16.453125 43.078125 16.488281 43.289062 L 16.566406 43.707031 L 17.589844 43.460938 L 17.480469 43.03125 C 17.421875 42.804688 17.292969 42.257812 17.152344 42.15625 C 17.152344 42.15625 17.292969 42.117188 17.574219 42.039062 C 17.859375 41.957031 17.984375 41.914062 17.984375 41.914062 C 17.925781 42.066406 18.085938 42.597656 18.152344 42.871094 L 18.464844 44.171875 M 20.363281 43.386719 L 19.351562 43.78125 L 19.386719 44.328125 C 19.40625 44.515625 19.410156 44.6875 19.449219 44.785156 C 19.46875 44.828125 19.5 44.863281 19.539062 44.882812 C 19.539062 44.882812 19.433594 44.921875 19.257812 44.976562 C 19.085938 45.03125 18.988281 45.058594 18.988281 45.058594 C 19.050781 44.957031 19.066406 44.8125 19.058594 44.636719 L 18.96875 42.03125 C 18.960938 41.9375 18.949219 41.847656 18.917969 41.773438 C 18.890625 41.707031 18.84375 41.671875 18.808594 41.640625 C 18.925781 41.570312 19.070312 41.488281 19.214844 41.425781 C 19.449219 41.328125 19.546875 41.332031 19.71875 41.527344 L 21.203125 43.351562 C 21.476562 43.695312 21.714844 43.929688 21.871094 43.976562 C 21.871094 43.976562 21.71875 44.046875 21.433594 44.171875 C 21.144531 44.296875 20.957031 44.367188 20.957031 44.367188 C 20.972656 44.308594 20.976562 44.246094 20.9375 44.152344 C 20.898438 44.050781 20.753906 43.878906 20.65625 43.75 L 20.363281 43.386719 M 20.179688 43.171875 L 19.277344 41.941406 L 19.34375 43.488281 Z M 24.613281 42.441406 C 24.410156 42.578125 24.257812 42.683594 24.257812 42.683594 C 24.242188 42.484375 23.855469 41.996094 23.738281 41.847656 L 22.867188 40.722656 L 23.570312 42.9375 C 23.542969 42.984375 23.492188 43.042969 23.445312 43.078125 C 23.308594 43.183594 23.171875 43.164062 23.046875 43.066406 L 21.382812 41.707031 L 21.96875 42.765625 C 22.109375 43.03125 22.382812 43.589844 22.570312 43.644531 C 22.570312 43.644531 22.453125 43.707031 22.308594 43.777344 C 22.230469 43.8125 22.152344 43.847656 22.074219 43.886719 C 22.109375 43.730469 21.835938 43.265625 21.679688 42.96875 L 21.03125 41.765625 C 20.835938 41.40625 20.617188 41.035156 20.433594 40.964844 C 20.578125 40.894531 20.621094 40.875 20.824219 40.773438 C 20.996094 40.6875 21.148438 40.609375 21.148438 40.609375 L 23.023438 42.179688 L 22.285156 39.953125 C 22.285156 39.953125 22.386719 39.886719 22.570312 39.765625 C 22.757812 39.640625 22.925781 39.519531 22.925781 39.519531 C 22.941406 39.71875 23.332031 40.226562 23.472656 40.40625 L 24.28125 41.429688 C 24.453125 41.640625 24.773438 42.109375 25 42.164062 C 25 42.164062 24.816406 42.308594 24.613281 42.441406 M 22.070312 45.746094 L 22.164062 45.863281 C 22.1875 45.894531 22.214844 45.9375 22.246094 45.949219 C 22.246094 45.949219 22.222656 45.964844 22.199219 45.980469 C 22.175781 45.996094 22.15625 46.007812 22.15625 46.007812 C 22.152344 45.976562 22.113281 45.929688 22.097656 45.910156 L 22 45.785156 L 22.082031 46.035156 C 22.078125 46.042969 22.074219 46.046875 22.066406 46.050781 C 22.046875 46.066406 22.03125 46.058594 22.015625 46.046875 L 21.824219 45.894531 L 21.898438 46.015625 C 21.917969 46.046875 21.949219 46.105469 21.976562 46.117188 L 21.945312 46.132812 C 21.933594 46.140625 21.925781 46.144531 21.914062 46.148438 C 21.917969 46.121094 21.878906 46.058594 21.867188 46.039062 L 21.785156 45.902344 C 21.765625 45.871094 21.734375 45.824219 21.707031 45.816406 C 21.707031 45.816406 21.734375 45.804688 21.761719 45.792969 C 21.777344 45.78125 21.792969 45.773438 21.800781 45.765625 L 22.015625 45.941406 L 21.933594 45.691406 C 21.941406 45.6875 21.953125 45.679688 21.972656 45.667969 C 21.996094 45.65625 22.015625 45.640625 22.015625 45.640625 C 22.015625 45.671875 22.054688 45.722656 22.070312 45.746094 M 5.4375 46.492188 C 5.609375 46.554688 5.835938 46.632812 5.835938 46.632812 C 5.644531 46.765625 5.472656 47.304688 5.359375 47.59375 L 4.925781 48.785156 C 4.808594 49.109375 4.609375 49.578125 4.675781 49.746094 C 4.675781 49.746094 4.4375 49.664062 4.242188 49.59375 C 4.078125 49.539062 3.984375 49.507812 3.808594 49.433594 C 4.019531 49.375 4.222656 48.675781 4.289062 48.5 L 4.488281 47.945312 L 3.445312 47.515625 L 3.140625 48.152344 C 3.042969 48.371094 2.808594 48.871094 2.863281 49.027344 C 2.863281 49.027344 2.679688 48.953125 2.410156 48.832031 C 2.09375 48.6875 2.023438 48.648438 2.023438 48.648438 C 2.246094 48.542969 2.378906 48.183594 2.550781 47.824219 L 3.097656 46.632812 C 3.28125 46.226562 3.445312 45.871094 3.433594 45.640625 C 3.433594 45.640625 3.53125 45.695312 3.800781 45.816406 C 4.015625 45.910156 4.121094 45.957031 4.242188 46.003906 C 4.074219 46.070312 3.835938 46.671875 3.710938 46.941406 L 3.550781 47.28125 L 4.570312 47.695312 L 4.726562 47.3125 C 4.800781 47.117188 5.054688 46.535156 5 46.335938 C 5 46.335938 5.207031 46.410156 5.4375 46.492188 M 6.613281 50.359375 C 5.707031 50.121094 5.417969 49.253906 5.660156 48.351562 C 5.902344 47.441406 6.589844 46.832031 7.492188 47.066406 C 8.394531 47.300781 8.691406 48.164062 8.449219 49.074219 C 8.207031 49.980469 7.523438 50.59375 6.613281 50.359375 M 7.421875 47.328125 C 6.84375 47.179688 6.542969 47.835938 6.355469 48.53125 C 6.171875 49.226562 6.101562 49.949219 6.683594 50.101562 C 7.265625 50.25 7.566406 49.589844 7.75 48.894531 C 7.9375 48.199219 8.003906 47.480469 7.421875 47.328125 Z M 9.074219 50.675781 C 9.074219 50.675781 9.132812 50.617188 9.171875 50.488281 C 9.226562 50.3125 9.261719 49.972656 9.304688 49.710938 L 9.5625 47.769531 C 9.019531 47.703125 8.882812 47.742188 8.644531 47.878906 L 8.867188 47.382812 C 9.035156 47.421875 9.410156 47.460938 9.863281 47.515625 C 10.167969 47.554688 11.074219 47.636719 11.074219 47.636719 L 11.105469 48.132812 C 10.90625 47.902344 10.699219 47.882812 10.246094 47.847656 L 9.992188 49.792969 C 9.96875 49.976562 9.871094 50.605469 9.96875 50.789062 C 9.859375 50.777344 9.679688 50.757812 9.527344 50.742188 C 9.371094 50.726562 9.164062 50.691406 9.074219 50.675781 M 13.394531 50.003906 C 13.398438 50.585938 12.917969 51.011719 12.175781 51 C 11.601562 50.992188 11.300781 50.757812 11.183594 50.664062 L 11.304688 50.109375 C 11.484375 50.460938 11.78125 50.71875 12.113281 50.722656 C 12.460938 50.726562 12.734375 50.527344 12.742188 50.183594 C 12.746094 49.9375 12.605469 49.789062 12.027344 49.488281 C 11.46875 49.207031 11.261719 48.921875 11.261719 48.5 C 11.261719 47.925781 11.769531 47.632812 12.363281 47.632812 C 12.800781 47.632812 13.105469 47.765625 13.300781 47.867188 L 13.175781 48.375 C 12.910156 48.023438 12.667969 47.894531 12.378906 47.890625 C 12.09375 47.886719 11.890625 48.039062 11.894531 48.328125 C 11.894531 48.644531 12.246094 48.816406 12.722656 49.078125 C 13.269531 49.378906 13.390625 49.679688 13.394531 50.003906 M 16.089844 48.214844 C 16.109375 48.28125 16.125 48.367188 16.128906 48.433594 C 16.136719 48.492188 16.136719 48.570312 16.132812 48.648438 C 16.117188 48.835938 16.023438 49.054688 15.875 49.210938 C 15.644531 49.449219 15.34375 49.566406 14.945312 49.585938 C 14.792969 49.59375 14.757812 49.546875 14.746094 49.4375 L 14.746094 49.414062 C 14.746094 49.414062 14.742188 49.371094 14.777344 49.371094 L 14.816406 49.367188 C 14.933594 49.351562 15.105469 49.316406 15.246094 49.148438 C 15.378906 48.976562 15.425781 48.746094 15.402344 48.5 C 15.378906 48.242188 15.300781 48.058594 15.125 47.925781 C 14.972656 47.8125 14.796875 47.773438 14.613281 47.789062 C 14.613281 47.789062 14.539062 47.792969 14.457031 47.808594 C 14.457031 47.808594 14.410156 47.8125 14.414062 47.855469 L 14.609375 49.871094 C 14.625 50.046875 14.675781 50.671875 14.824219 50.796875 C 14.824219 50.796875 14.65625 50.816406 14.339844 50.839844 C 14.097656 50.859375 13.910156 50.867188 13.910156 50.867188 C 13.972656 50.710938 13.964844 50.484375 13.949219 50.21875 L 13.796875 48.628906 C 13.777344 48.449219 13.746094 47.828125 13.597656 47.671875 C 13.597656 47.671875 14 47.613281 14.746094 47.542969 C 15.136719 47.507812 15.457031 47.558594 15.734375 47.742188 C 15.914062 47.863281 16.039062 48.035156 16.089844 48.214844 M 19.144531 48.863281 C 19.304688 49.5625 18.972656 50.15625 18.238281 50.335938 C 17.722656 50.464844 16.976562 50.277344 16.769531 49.382812 L 16.515625 48.324219 C 16.449219 48.03125 16.339844 47.507812 16.167969 47.371094 C 16.167969 47.371094 16.359375 47.34375 16.664062 47.285156 C 16.96875 47.230469 17.109375 47.199219 17.109375 47.199219 C 17.03125 47.320312 17.113281 47.8125 17.195312 48.171875 L 17.515625 49.511719 C 17.574219 49.757812 17.65625 49.925781 17.796875 50.027344 C 17.898438 50.101562 18.039062 50.121094 18.183594 50.09375 C 18.3125 50.070312 18.449219 49.996094 18.523438 49.867188 C 18.597656 49.730469 18.597656 49.53125 18.539062 49.285156 L 18.175781 47.941406 C 18.078125 47.574219 17.964844 47.109375 17.839844 47.03125 C 17.839844 47.03125 17.988281 46.992188 18.269531 46.914062 C 18.480469 46.855469 18.605469 46.816406 18.695312 46.785156 C 18.613281 46.988281 18.8125 47.609375 18.855469 47.785156 L 19.144531 48.863281 M 22.449219 48.589844 C 22.519531 48.613281 22.597656 48.632812 22.660156 48.605469 C 22.652344 48.648438 22.613281 48.738281 22.542969 48.808594 C 22.246094 49.109375 21.964844 49.058594 21.871094 49.019531 C 21.359375 48.828125 20.5 48.078125 20.464844 47.996094 C 20.464844 47.996094 20.457031 47.972656 20.476562 47.964844 L 20.507812 47.953125 C 20.644531 47.898438 20.796875 47.746094 20.855469 47.605469 C 20.953125 47.398438 20.933594 47.210938 20.835938 46.984375 C 20.738281 46.746094 20.558594 46.597656 20.421875 46.558594 C 20.21875 46.5 20.066406 46.546875 19.972656 46.582031 C 19.972656 46.582031 19.851562 46.628906 19.8125 46.667969 C 19.8125 46.667969 19.789062 46.6875 19.816406 46.769531 L 20.464844 48.59375 C 20.5625 48.863281 20.734375 49.386719 20.890625 49.476562 C 20.890625 49.476562 20.714844 49.542969 20.449219 49.636719 C 20.183594 49.734375 20.023438 49.777344 20.023438 49.777344 C 20.074219 49.574219 19.871094 49.019531 19.820312 48.863281 L 19.402344 47.628906 C 19.296875 47.332031 19.105469 46.800781 18.949219 46.714844 C 18.949219 46.714844 19.253906 46.628906 19.941406 46.34375 C 20.308594 46.195312 20.664062 46.128906 20.980469 46.222656 C 21.175781 46.277344 21.308594 46.375 21.414062 46.527344 C 21.457031 46.585938 21.484375 46.644531 21.511719 46.707031 C 21.535156 46.761719 21.550781 46.824219 21.5625 46.886719 C 21.597656 47.070312 21.566406 47.269531 21.460938 47.457031 C 21.460938 47.457031 21.359375 47.644531 21.152344 47.792969 C 21.152344 47.792969 21.824219 48.355469 22.449219 48.589844 "/>
</g>
</svg>
